<svg xmlns="http://www.w3.org/2000/svg" viewBox="0 0 6856.23 1451.21"><defs><style>.cls-1{opacity:0.15;}.cls-2{fill:#4d34c6;}.cls-3{fill:#ef305e;}.cls-4{fill:#2fd3d4;}.cls-5{fill:#ff9d00;}.cls-6{fill:#4d75f2;}.cls-7{fill:#ea7221;}.cls-8{fill:#fcba47;}.cls-9{fill:none;}</style></defs><title>Asset 1</title><g id="Layer_2" data-name="Layer 2"><g id="Artwork"><polygon class="cls-1" points="2972.65 590.21 2972.65 590.21 2972.65 590.21 2972.65 1047.21 2515.65 1047.21 2919.54 1451.1 3833.54 1451.1 2972.65 590.21"/><polygon class="cls-1" points="6189.09 784.08 6189.09 784.08 6189.09 784.08 6189.09 1138.22 5834.94 1138.22 6147.93 1451.21 6856.23 1451.21 6189.09 784.08"/><polygon class="cls-1" points="5238.86 0 4553.92 684.94 4830.96 525 5108.65 685.32 5108.65 1005.98 5108.6 1006.01 5108.65 1006.21 6104.87 0 5238.86 0"/><path class="cls-1" d="M2067.78,242.19c-138.14,0-251.36-106.71-261.73-242.19h-21.19L333.77,1451.1h626L2211.45,199.41h0A261.23,261.23,0,0,1,2067.78,242.19Z"/><ellipse class="cls-2" cx="5742.63" cy="32.22" rx="17.44" ry="17.43"/><ellipse class="cls-2" cx="5881.52" cy="32.22" rx="17.44" ry="17.43"/><ellipse class="cls-3" cx="5812.07" cy="32.22" rx="17.44" ry="17.43"/><ellipse class="cls-2" cx="5950.97" cy="32.22" rx="17.44" ry="17.43"/><ellipse class="cls-2" cx="6089.86" cy="32.22" rx="17.44" ry="17.43"/><ellipse class="cls-2" cx="6020.41" cy="32.22" rx="17.44" ry="17.43"/><ellipse class="cls-2" cx="6159.31" cy="32.22" rx="17.44" ry="17.43"/><ellipse class="cls-2" cx="5742.63" cy="101.68" rx="17.44" ry="17.43"/><ellipse class="cls-2" cx="5881.52" cy="101.68" rx="17.44" ry="17.43"/><ellipse class="cls-2" cx="5812.07" cy="101.68" rx="17.44" ry="17.43"/><ellipse class="cls-4" cx="5950.97" cy="101.68" rx="17.44" ry="17.43"/><ellipse class="cls-2" cx="6089.86" cy="101.68" rx="17.44" ry="17.43"/><ellipse class="cls-5" cx="6020.41" cy="101.68" rx="17.44" ry="17.43"/><ellipse class="cls-6" cx="6159.31" cy="101.68" rx="17.44" ry="17.43"/><ellipse class="cls-4" cx="5742.63" cy="171.13" rx="17.44" ry="17.43"/><ellipse class="cls-2" cx="5881.52" cy="171.13" rx="17.44" ry="17.43"/><ellipse class="cls-2" cx="5812.07" cy="171.13" rx="17.44" ry="17.43"/><ellipse class="cls-5" cx="5950.97" cy="171.13" rx="17.44" ry="17.43"/><ellipse class="cls-2" cx="6089.86" cy="171.13" rx="17.44" ry="17.43"/><ellipse class="cls-3" cx="6020.41" cy="171.13" rx="17.44" ry="17.43"/><ellipse class="cls-6" cx="6159.31" cy="171.13" rx="17.44" ry="17.43"/><ellipse class="cls-3" cx="5742.63" cy="240.58" rx="17.44" ry="17.43"/><ellipse class="cls-2" cx="5881.52" cy="240.58" rx="17.44" ry="17.43"/><ellipse class="cls-6" cx="5812.07" cy="240.58" rx="17.44" ry="17.43"/><ellipse class="cls-6" cx="5950.97" cy="240.58" rx="17.44" ry="17.43"/><ellipse class="cls-2" cx="6089.86" cy="240.58" rx="17.44" ry="17.43"/><ellipse class="cls-2" cx="6020.41" cy="240.58" rx="17.44" ry="17.43"/><ellipse class="cls-3" cx="6159.31" cy="240.58" rx="17.44" ry="17.43"/><ellipse class="cls-2" cx="5742.63" cy="310.03" rx="17.44" ry="17.43"/><ellipse class="cls-2" cx="5881.52" cy="310.03" rx="17.44" ry="17.43"/><ellipse class="cls-6" cx="5812.07" cy="310.03" rx="17.44" ry="17.43"/><ellipse class="cls-2" cx="5950.97" cy="310.03" rx="17.44" ry="17.43"/><ellipse class="cls-2" cx="6089.86" cy="310.03" rx="17.44" ry="17.43"/><ellipse class="cls-2" cx="6020.41" cy="310.03" rx="17.44" ry="17.43"/><ellipse class="cls-3" cx="6159.31" cy="310.03" rx="17.44" ry="17.43"/><path class="cls-2" d="M287.53,878.69H39V630.19h248.5ZM59,858.69h208.5V650.19H59Z"/><path class="cls-2" d="M226.16,817.32H100.4V691.56H226.16Zm-105.76-20h85.76V711.56H120.4Z"/><path class="cls-2" d="M2515.65,590.21v457h457v-457Zm228.5,334.26a105.76,105.76,0,1,1,105.76-105.76A105.76,105.76,0,0,1,2744.15,924.47Z"/><path class="cls-2" d="M5834.94,784.08v354.14h354.15V784.08Zm177.08,259a82,82,0,1,1,82-82A82,82,0,0,1,6012,1043.11Z"/><ellipse class="cls-2" cx="5367.48" cy="1184.52" rx="24.55" ry="24.52"/><ellipse class="cls-2" cx="5562.95" cy="1184.52" rx="24.55" ry="24.52"/><ellipse class="cls-2" cx="5465.21" cy="1184.52" rx="24.55" ry="24.52"/><ellipse class="cls-2" cx="5660.68" cy="1184.52" rx="24.55" ry="24.52"/><ellipse class="cls-2" cx="5758.41" cy="1184.52" rx="24.55" ry="24.52"/><ellipse class="cls-2" cx="5367.48" cy="1282.25" rx="24.55" ry="24.52"/><ellipse class="cls-2" cx="5562.95" cy="1282.25" rx="24.55" ry="24.52"/><ellipse class="cls-2" cx="5465.21" cy="1282.25" rx="24.55" ry="24.52"/><ellipse class="cls-2" cx="5660.68" cy="1282.25" rx="24.55" ry="24.52"/><ellipse class="cls-2" cx="5758.41" cy="1282.25" rx="24.55" ry="24.52"/><ellipse class="cls-2" cx="5367.48" cy="1379.99" rx="24.55" ry="24.52"/><ellipse class="cls-5" cx="5562.95" cy="1379.99" rx="24.55" ry="24.52"/><ellipse class="cls-6" cx="5465.21" cy="1379.99" rx="24.55" ry="24.52"/><ellipse class="cls-5" cx="5660.68" cy="1379.99" rx="24.55" ry="24.52"/><ellipse class="cls-4" cx="5758.41" cy="1379.99" rx="24.55" ry="24.52"/><path class="cls-2" d="M4831,525l-277.7,160.32V1006L4831,1166.31,5108.65,1006V685.32Zm170.82,419.28L4831,1042.9l-170.83-98.62V747L4831,648.4,5001.78,747Z"/><path class="cls-2" d="M3808.06,1222.8l153.62,153.63,153.63-153.63-153.63-153.63Zm189.18,35.55a50.28,50.28,0,1,1,0-71.11A50.28,50.28,0,0,1,3997.24,1258.35Z"/><path class="cls-6" d="M3962.18,1069.67v102.86a50.27,50.27,0,0,1,0,100.54v102.86l153.13-153.13Z"/><path class="cls-2" d="M2604.93,209.14H2484.31L2424,313.61l60.32,104.46h120.62l60.31-104.46ZM2544.62,362A48.37,48.37,0,1,1,2593,313.61,48.37,48.37,0,0,1,2544.62,362Z"/><path class="cls-6" d="M2604.93,209.14H2484.31l-60,103.93h72a48.36,48.36,0,0,1,96.71,0h72Z"/><path class="cls-2" d="M6615.37,666.61c-90.16,0-163.5-73.35-163.5-163.5s73.34-163.5,163.5-163.5,163.5,73.34,163.5,163.5S6705.52,666.61,6615.37,666.61Zm0-271a107.5,107.5,0,1,0,107.5,107.5A107.62,107.62,0,0,0,6615.37,395.61Z"/><rect class="cls-7" x="6555.1" y="1125.57" width="55.86" height="57.28" transform="translate(2744.28 -4316.84) rotate(45)"/><rect class="cls-3" x="2747.85" y="1304.83" width="56.57" height="56.57" transform="translate(1755.76 -1572.56) rotate(45)"/><path class="cls-4" d="M6674.94,282.5h-62.57V219.93h62.57Zm-56.57-6h50.57V225.93h-50.57Z"/><rect class="cls-5" x="92.12" y="1241.09" width="56.57" height="56.57" transform="translate(932.85 286.65) rotate(45)"/><rect class="cls-6" x="5169.37" y="1212.81" width="56.57" height="56.57" transform="translate(2399.94 -3311.79) rotate(45)"/><rect class="cls-4" x="4614.18" y="611.91" width="56.57" height="56.57" transform="translate(5282.66 -4002.27) rotate(90)"/><path class="cls-5" d="M4277.39,995.35a40,40,0,0,1,40,40h-80A40,40,0,0,1,4277.39,995.35Z"/><path class="cls-3" d="M3146.68,267.61h-84v-84h84Zm-80-4h76v-76h-76Z"/><circle class="cls-7" cx="1931.97" cy="894.58" r="30"/><path class="cls-7" d="M607.85,861.21a42.5,42.5,0,1,1,42.5-42.5A42.54,42.54,0,0,1,607.85,861.21Zm0-80a37.5,37.5,0,1,0,37.5,37.5A37.54,37.54,0,0,0,607.85,781.21Z"/><path class="cls-5" d="M6071.65,589.48a42.5,42.5,0,1,1,42.5-42.5A42.55,42.55,0,0,1,6071.65,589.48Zm0-80a37.5,37.5,0,1,0,37.5,37.5A37.54,37.54,0,0,0,6071.65,509.48Z"/><path class="cls-2" d="M5697.49,858.35h-73.62l-36.82,63.76,36.82,63.77h73.62l36.81-63.77Zm-36.81,93.29a29.53,29.53,0,1,1,29.52-29.53A29.52,29.52,0,0,1,5660.68,951.64Z"/><circle class="cls-3" cx="5075.65" cy="219.95" r="30"/><rect class="cls-8" x="1572.21" y="584.19" width="560.54" height="35.49"/><rect class="cls-3" x="1572.21" y="717.27" width="282.21" height="35.49"/><rect class="cls-4" x="1647.53" y="650.73" width="136.45" height="35.49"/><rect class="cls-4" x="5264.91" y="445.58" width="645.17" height="35.49"/><rect class="cls-3" x="5340.23" y="379.68" width="212.15" height="35.49"/><rect class="cls-8" x="5340.23" y="313.77" width="292.82" height="35.49"/><polygon class="cls-8" points="4315.48 1300.68 4255.89 1241.09 4315.48 1181.49 4322.56 1188.56 4270.03 1241.09 4322.56 1293.61 4315.48 1300.68"/><polygon class="cls-8" points="4630.44 1300.68 4623.37 1293.61 4675.89 1241.09 4623.37 1188.56 4630.44 1181.49 4690.03 1241.09 4630.44 1300.68"/><rect class="cls-3" x="4503.09" y="1236.09" width="139.75" height="10" transform="translate(2266.29 5380.12) rotate(-76.05)"/><path class="cls-4" d="M4371,1273.54v13.26h-5.7v-89.52h5.7v39.31c4.59-8.06,11.41-15,22.2-15,13,0,25.91,11.66,25.91,32.74v.86c0,21.08-12.89,33-25.91,33C4382.3,1288.17,4375.35,1281.35,4371,1273.54Zm42-18.11v-.86c0-17.36-9.43-27.53-20.46-27.53s-21.95,10.66-21.95,27.28v1.11c0,16.74,10.79,27.28,21.95,27.28S4413.05,1273,4413.05,1255.43Z"/><path class="cls-4" d="M4438.71,1198.89h6.95v8.43h-6.95Zm.5,24.06H4445v63.85h-5.83Z"/><path class="cls-4" d="M4467.73,1298.21l3-5a37.56,37.56,0,0,0,21.57,6.94c12.52,0,21-6.94,21-20.7V1268.2c-4.47,7.69-11.66,14.26-22.32,14.26-13.15,0-25.67-11.16-25.67-30.13v-.49c0-18.85,12.52-30.26,25.67-30.26,10.78,0,18,6.57,22.32,14V1223h5.82v56.66c0,8.19-2.6,14.38-6.94,18.85-4.71,4.71-11.78,7.19-20.09,7.19A44.32,44.32,0,0,1,4467.73,1298.21Zm45.88-45.88v-.49c0-15.38-11-24.8-22.07-24.8s-20.21,9-20.21,24.8v.37c0,15.37,9.3,24.92,20.21,24.92S4513.61,1267.46,4513.61,1252.33Z"/><circle class="cls-2" cx="3717.63" cy="668.48" r="201.83"/><path class="cls-2" d="M2187.58,0a121.53,121.53,0,0,1-119.8,101.19A121.52,121.52,0,0,1,1948,0H1806.05c10.37,135.48,123.59,242.19,261.73,242.19S2319.13,135.48,2329.5,0Z"/><path class="cls-4" d="M1965.15,263a43,43,0,1,1,43-43A43,43,0,0,1,1965.15,263Zm0-80a37,37,0,1,0,37,37A37,37,0,0,0,1965.15,183Z"/><polygon class="cls-2" points="3564.58 3.12 3342.65 225.05 3120.72 3.12 3123.84 0 3095.55 0 3092.44 3.12 3342.65 253.33 3592.87 3.12 3589.75 0 3561.47 0 3564.58 3.12"/><polygon class="cls-2" points="3437.78 3.12 3342.65 98.24 3247.53 3.12 3250.64 0 3222.36 0 3219.24 3.12 3342.65 126.53 3466.06 3.12 3462.95 0 3434.66 0 3437.78 3.12"/><polygon class="cls-1" points="419.07 423.04 419.07 102.38 596.39 0 0 0 419.07 423.27 419.12 423.07 419.07 423.04"/><polygon class="cls-1" points="973.8 102 871.8 0 797.13 0 973.8 102"/><polygon class="cls-9" points="525.93 164.08 525.93 361.33 696.76 459.96 867.59 361.33 867.59 164.08 696.76 65.46 525.93 164.08"/><path class="cls-2" d="M419.07,102.38V423L696.76,583.36,974.46,423V102.38L797.13,0H596.4Zm448.52,259L696.76,460,525.94,361.34V164.08L696.76,65.46l170.83,98.62Z"/><polygon class="cls-7" points="3635.13 1451.1 3640.13 1451.1 3640.13 1415.67 3715.13 1415.67 3715.13 1451.1 3720.13 1451.1 3720.13 1410.67 3635.13 1410.67 3635.13 1451.1"/><path class="cls-2" d="M4958.15,1306c-80.1,0-145.3,65.08-145.49,145.14h20a125.5,125.5,0,0,1,251,0h20C5103.45,1371,5038.26,1306,4958.15,1306Z"/><path class="cls-9" d="M4496.72,490.93a20.06,20.06,0,1,0,14.19,5.87A20,20,0,0,0,4496.72,490.93Z"/><path class="cls-9" d="M4552.93,323.68a20.07,20.07,0,1,0,14.19,5.88A19.94,19.94,0,0,0,4552.93,323.68Z"/><path class="cls-2" d="M5000.58,0,4514.11,486.47a28.94,28.94,0,0,1,3.87,3.26,29.37,29.37,0,0,1,3.21,3.8L5014.72,0Z"/><path class="cls-2" d="M4574.19,322.49a29.81,29.81,0,0,1,4,5L4905.72,0h-14.14l-320.1,320.1A30.48,30.48,0,0,1,4574.19,322.49Z"/><path class="cls-2" d="M4571.48,320.1a30,30,0,1,0,2.71,44.91h0a30.11,30.11,0,0,0,4-37.51,29.81,29.81,0,0,0-4-5A30.48,30.48,0,0,0,4571.48,320.1Zm-4.36,37.84a20.07,20.07,0,1,1,0-28.38A20.1,20.1,0,0,1,4567.12,357.94Z"/><path class="cls-2" d="M4514.11,486.47a30,30,0,1,0,3.87,45.78h0a30.1,30.1,0,0,0,3.21-38.72,29.37,29.37,0,0,0-3.21-3.8A28.94,28.94,0,0,0,4514.11,486.47Zm-3.2,38.71a20.06,20.06,0,1,1,0-28.38A20.1,20.1,0,0,1,4510.91,525.18Z"/><path class="cls-9" d="M2290,805.21a20.07,20.07,0,1,0,28.38,0A20.1,20.1,0,0,0,2290,805.21Z"/><path class="cls-9" d="M2154.11,889.79a20.07,20.07,0,1,0-28.38,0A19.94,19.94,0,0,0,2154.11,889.79Z"/><path class="cls-2" d="M2118.66,896.86a29.37,29.37,0,0,1-3.21-3.8l-558,558h14.14l551-551A28.94,28.94,0,0,1,2118.66,896.86Z"/><path class="cls-2" d="M2280.08,837.43,1666.41,1451.1h14.14l606.78-606.78a29.86,29.86,0,0,1-7.25-6.89Z"/><path class="cls-2" d="M2282.88,798.14a30.07,30.07,0,1,0,42.52,0A30.11,30.11,0,0,0,2282.88,798.14Zm35.45,35.45a20.07,20.07,0,1,1,0-28.38A20.1,20.1,0,0,1,2318.33,833.59Z"/><path class="cls-2" d="M2122.53,900.12a30.07,30.07,0,1,0-7.08-7.06,29.37,29.37,0,0,0,3.21,3.8A28.94,28.94,0,0,0,2122.53,900.12Zm3.2-38.71a20.07,20.07,0,1,1,0,28.38A19.93,19.93,0,0,1,2125.73,861.41Z"/><path class="cls-5" d="M2716.65,0V55a55,55,0,0,0,55-55Z"/><path class="cls-4" d="M1309.65,0a40,40,0,0,0,40,40,40,40,0,0,0,40-40Z"/><path class="cls-2" d="M763.32,1160a24.55,24.55,0,1,0,24.53,24.55A24.54,24.54,0,0,0,763.32,1160Z"/><ellipse class="cls-2" cx="763.32" cy="1379.99" rx="24.52" ry="24.55"/><path class="cls-2" d="M763.32,1306.81a24.55,24.55,0,1,0-24.52-24.55A24.54,24.54,0,0,0,763.32,1306.81Z"/><path class="cls-2" d="M665.58,1209.08a24.55,24.55,0,1,0-24.52-24.55A24.54,24.54,0,0,0,665.58,1209.08Z"/><ellipse class="cls-2" cx="665.58" cy="1379.99" rx="24.52" ry="24.55"/><path class="cls-2" d="M665.58,1306.81a24.55,24.55,0,1,0-24.52-24.55A24.54,24.54,0,0,0,665.58,1306.81Z"/><path class="cls-2" d="M567.85,1209.08a24.55,24.55,0,1,0-24.53-24.55A24.54,24.54,0,0,0,567.85,1209.08Z"/><ellipse class="cls-5" cx="567.85" cy="1379.99" rx="24.52" ry="24.55"/><path class="cls-6" d="M567.85,1306.81a24.55,24.55,0,1,0-24.53-24.55A24.54,24.54,0,0,0,567.85,1306.81Z"/><path class="cls-3" d="M470.11,1209.08a24.55,24.55,0,1,0-24.53-24.55A24.54,24.54,0,0,0,470.11,1209.08Z"/><ellipse class="cls-2" cx="470.11" cy="1379.99" rx="24.55" ry="24.52" transform="translate(-910.48 1848.34) rotate(-89.93)"/><path class="cls-3" d="M470.11,1306.81a24.55,24.55,0,1,0-24.53-24.55A24.54,24.54,0,0,0,470.11,1306.81Z"/><path class="cls-2" d="M372.37,1209.08a24.55,24.55,0,1,0-24.52-24.55A24.54,24.54,0,0,0,372.37,1209.08Z"/><ellipse class="cls-2" cx="372.37" cy="1379.99" rx="24.52" ry="24.55"/><path class="cls-5" d="M372.37,1306.81a24.55,24.55,0,1,0-24.52-24.55A24.54,24.54,0,0,0,372.37,1306.81Z"/><rect class="cls-6" x="946.53" y="200.07" width="55.86" height="57.28" transform="translate(1203.17 -745.75) rotate(90)"/><path class="cls-2" d="M2214.83,1286.8a17.43,17.43,0,1,0-17.45-17.42A17.43,17.43,0,0,0,2214.83,1286.8Z"/><path class="cls-2" d="M2353.72,1286.8a17.43,17.43,0,1,0-17.44-17.42A17.43,17.43,0,0,0,2353.72,1286.8Z"/><path class="cls-2" d="M2284.27,1286.8a17.43,17.43,0,1,0-17.44-17.42A17.43,17.43,0,0,0,2284.27,1286.8Z"/><path class="cls-2" d="M2423.17,1286.8a17.43,17.43,0,1,0-17.45-17.42A17.43,17.43,0,0,0,2423.17,1286.8Z"/><path class="cls-2" d="M2562.06,1286.8a17.43,17.43,0,1,0-17.44-17.42A17.43,17.43,0,0,0,2562.06,1286.8Z"/><path class="cls-2" d="M2492.62,1286.8a17.43,17.43,0,1,0-17.45-17.42A17.43,17.43,0,0,0,2492.62,1286.8Z"/><path class="cls-2" d="M2631.51,1252a17.43,17.43,0,1,0,17.44,17.43A17.43,17.43,0,0,0,2631.51,1252Z"/><ellipse class="cls-2" cx="2214.83" cy="1338.83" rx="17.44" ry="17.43"/><ellipse class="cls-6" cx="2353.72" cy="1338.83" rx="17.44" ry="17.43"/><ellipse class="cls-2" cx="2284.27" cy="1338.83" rx="17.44" ry="17.43"/><ellipse class="cls-2" cx="2423.17" cy="1338.83" rx="17.44" ry="17.43"/><ellipse class="cls-5" cx="2562.06" cy="1338.83" rx="17.44" ry="17.43"/><ellipse class="cls-3" cx="2492.62" cy="1338.83" rx="17.44" ry="17.43"/><ellipse class="cls-2" cx="2631.51" cy="1338.83" rx="17.44" ry="17.43"/><path class="cls-2" d="M2214.83,1425.71a17.43,17.43,0,1,0-17.45-17.43A17.44,17.44,0,0,0,2214.83,1425.71Z"/><path class="cls-2" d="M2353.72,1425.71a17.43,17.43,0,1,0-17.44-17.43A17.44,17.44,0,0,0,2353.72,1425.71Z"/><path class="cls-3" d="M2284.27,1425.71a17.43,17.43,0,1,0-17.44-17.43A17.44,17.44,0,0,0,2284.27,1425.71Z"/><path class="cls-2" d="M2423.17,1425.71a17.43,17.43,0,1,0-17.45-17.43A17.44,17.44,0,0,0,2423.17,1425.71Z"/><path class="cls-2" d="M2562.06,1425.71a17.43,17.43,0,1,0-17.44-17.43A17.44,17.44,0,0,0,2562.06,1425.71Z"/><path class="cls-2" d="M2492.62,1425.71a17.43,17.43,0,1,0-17.45-17.43A17.44,17.44,0,0,0,2492.62,1425.71Z"/><path class="cls-2" d="M2631.51,1425.71a17.43,17.43,0,1,0-17.44-17.43A17.44,17.44,0,0,0,2631.51,1425.71Z"/><path class="cls-2" d="M4007.9,2.4a24.55,24.55,0,0,0,49.09,0c0-.81,0-1.61-.11-2.4H4008C4007.94.79,4007.9,1.59,4007.9,2.4Z"/><path class="cls-2" d="M4203.36,2.4a24.55,24.55,0,0,0,49.1,0,23.81,23.81,0,0,0-.12-2.4h-48.86A23.81,23.81,0,0,0,4203.36,2.4Z"/><path class="cls-6" d="M4105.63,2.4a24.55,24.55,0,0,0,49.1,0c0-.81,0-1.61-.12-2.4h-48.86A23.81,23.81,0,0,0,4105.63,2.4Z"/><path class="cls-2" d="M4301.09,2.4a24.55,24.55,0,0,0,49.1,0,23.81,23.81,0,0,0-.12-2.4h-48.86A23.81,23.81,0,0,0,4301.09,2.4Z"/><path class="cls-2" d="M4398.82,2.4a24.55,24.55,0,0,0,49.1,0,23.81,23.81,0,0,0-.12-2.4h-48.86A23.81,23.81,0,0,0,4398.82,2.4Z"/><path class="cls-2" d="M4032.45,75.61A24.53,24.53,0,1,0,4057,100.13,24.54,24.54,0,0,0,4032.45,75.61Z"/><path class="cls-2" d="M4227.91,75.61a24.53,24.53,0,1,0,24.55,24.52A24.54,24.54,0,0,0,4227.91,75.61Z"/><path class="cls-2" d="M4130.18,75.61a24.53,24.53,0,1,0,24.55,24.52A24.54,24.54,0,0,0,4130.18,75.61Z"/><path class="cls-3" d="M4325.64,75.61a24.53,24.53,0,1,0,24.55,24.52A24.54,24.54,0,0,0,4325.64,75.61Z"/><path class="cls-6" d="M4423.37,75.61a24.53,24.53,0,1,0,24.55,24.52A24.54,24.54,0,0,0,4423.37,75.61Z"/><path class="cls-6" d="M4032.45,173.35A24.53,24.53,0,1,0,4057,197.87,24.54,24.54,0,0,0,4032.45,173.35Z"/><path class="cls-2" d="M4227.91,173.35a24.53,24.53,0,1,0,24.55,24.52A24.54,24.54,0,0,0,4227.91,173.35Z"/><path class="cls-6" d="M4130.18,173.35a24.53,24.53,0,1,0,24.55,24.52A24.54,24.54,0,0,0,4130.18,173.35Z"/><path class="cls-2" d="M4325.64,173.35a24.53,24.53,0,1,0,24.55,24.52A24.54,24.54,0,0,0,4325.64,173.35Z"/><path class="cls-6" d="M4423.37,173.35a24.53,24.53,0,1,0,24.55,24.52A24.54,24.54,0,0,0,4423.37,173.35Z"/><path class="cls-2" d="M4032.45,320.13a24.53,24.53,0,1,0-24.55-24.52A24.53,24.53,0,0,0,4032.45,320.13Z"/><path class="cls-2" d="M4227.91,271.08a24.53,24.53,0,1,0,24.55,24.53A24.54,24.54,0,0,0,4227.91,271.08Z"/><path class="cls-3" d="M4130.18,271.08a24.53,24.53,0,1,0,24.55,24.53A24.54,24.54,0,0,0,4130.18,271.08Z"/><path class="cls-4" d="M4325.64,271.08a24.53,24.53,0,1,0,24.55,24.53A24.54,24.54,0,0,0,4325.64,271.08Z"/><path class="cls-5" d="M4423.37,271.08a24.53,24.53,0,1,0,24.55,24.53A24.54,24.54,0,0,0,4423.37,271.08Z"/></g></g></svg>