<svg class="file-svg-icon" xmlns="http://www.w3.org/2000/svg"
  xmlns:xlink="http://www.w3.org/1999/xlink" width="13px" height="18px" viewBox="0 0 13 18"
  version="1.1">
  <defs></defs>
  <g stroke="none" stroke-width="1" fill="currentColor" fill-rule="evenodd">
    <g transform="translate(-688.000000, -1360.000000)" fill="currentColor" fill-rule="nonzero">
      <g id="Featured-Video" transform="translate(77.000000, 1004.000000)">
        <g id="Jurgen-Copy-4" transform="translate(577.000000, 218.000000)">
          <g transform="translate(34.000000, 138.000000)">
            <path
              d="M7.23485854,4.19145366 L7.23485854,0 L0.450439024,0 C0.232243902,0 0.0553170732,0.176926829 0.0553170732,0.395121951 L0.0553170732,17.5500878 C0.0553170732,17.7682829 0.232243902,17.9452098 0.450439024,17.9452098 L12.5777854,17.9452098 C12.7959805,17.9452098 12.9729073,17.7682829 12.9729073,17.5500878 L12.9729073,5.38682927 L8.42953171,5.38682927 C7.77081951,5.38682927 7.23485854,4.85060488 7.23485854,4.19145366 Z M7.06820488,14.8061854 L2.98527805,14.8061854 L2.98527805,13.9281366 L7.06820488,13.9281366 L7.06820488,14.8061854 Z M10.1413756,12.6110634 L2.98527805,12.6110634 L2.98527805,11.7330146 L10.1413756,11.7330146 L10.1413756,12.6110634 Z M10.1413756,10.4160293 L2.98527805,10.4160293 L2.98527805,9.53798049 L10.1413756,9.53798049 L10.1413756,10.4160293 Z M10.1413756,8.22090732 L2.98527805,8.22090732 L2.98527805,7.34285854 L10.1413756,7.34285854 L10.1413756,8.22090732 Z M8.11290732,4.19145366 L8.11290732,0.912819512 L11.9590244,4.50878049 L8.42953171,4.50878049 C8.2548878,4.50878049 8.11290732,4.36644878 8.11290732,4.19145366 Z"></path>
          </g>
        </g>
      </g>
    </g>
  </g>
</svg>