<svg class="gh-svg-icon" xmlns="http://www.w3.org/2000/svg"
  xmlns:xlink="http://www.w3.org/1999/xlink" width="18px" height="18px" viewBox="0 0 18 18"
  version="1.1">
  <defs></defs>
  <g class="fills" transform="translate(-827.000000, -447.000000)" fill="currentColor"
    fill-rule="nonzero">
    <g id="API-Clients" transform="translate(95.000000, 309.000000)">
      <g id="Stacked-Group" transform="translate(446.000000, 0.000000)">
        <g id="PHP-API-Client" transform="translate(214.000000, 0.000000)">
          <g id="Github---default" transform="translate(72.000000, 138.000000)">
            <path
              d="M0.000221706391,9.0002096 C0.000221706391,10.6562096 0.403221706,12.1602096 1.21022171,13.5102096 C1.99165171,14.8789096 3.12386171,16.0146096 4.49022171,16.8002096 C5.85892171,17.5970096 7.41654171,18.0114096 9.00022171,18.0002096 C10.6312217,18.0002096 12.1402217,17.6002096 13.5282217,16.8002096 C14.8937217,16.0163096 16.0250217,14.8818096 16.8052217,13.5142096 C17.5985217,12.1428096 18.0111217,10.5844096 18.0002217,9.0002096 C18.0002217,7.3502096 17.6002217,5.8402096 16.8002217,4.4722096 C16.0163217,3.1067296 14.8818217,1.9754096 13.5142217,1.1952096 C12.1428217,0.401902603 10.5844217,-0.0106528974 9.00022171,0.000209072508 C7.34422171,0.000209602572 5.84022171,0.403209603 4.49022171,1.2102096 C3.12148171,1.9916396 1.98581171,3.1238496 1.20022171,4.4902096 C0.403449706,5.8589096 -0.0109930936,7.4165296 0.000221706391,9.0002096 M1.50022171,9.0002096 C1.50022171,8.0002096 1.69722171,7.0342096 2.09022171,6.1032096 C2.84403171,4.2830896 4.29116171,2.8377496 6.11222171,2.0862096 C7.96080171,1.3035896 10.0476217,1.3035896 11.8962217,2.0862096 C12.8282217,2.4762096 13.6342217,3.0132096 14.3162217,3.6942096 C15.0016217,4.3851396 15.5445217,5.2039696 15.9142217,6.1042096 C16.3042217,7.0342096 16.5002217,8.0002096 16.5002217,9.0002096 C16.5002217,10.0752096 16.2802217,11.1002096 15.8402217,12.0752096 C15.4073217,13.0396096 14.7743217,13.9010096 13.9832217,14.6022096 C13.1940217,15.3072096 12.2617217,15.8332096 11.2502217,16.1442096 L11.2502217,13.5002096 C11.2502217,12.8442096 10.9812217,12.3312096 10.4442217,11.9632096 C11.7622217,11.8432096 12.7272217,11.5092096 13.3362217,10.9592096 C13.9462217,10.4092096 14.2502217,9.5382096 14.2502217,8.3442096 C14.2502217,7.4192096 13.9662217,6.6412096 13.3972217,6.0092096 C13.5092217,5.6722096 13.5662217,5.3472096 13.5662217,5.0342096 C13.5662217,4.5722096 13.4592217,4.1472096 13.2462217,3.7592096 C12.8282217,3.7592096 12.4532217,3.8292096 12.1222217,3.9662096 C11.7912217,4.1032096 11.3842217,4.3412096 10.9032217,4.6782096 C10.3124217,4.5458596 9.70868171,4.4797896 9.10322171,4.4812096 C8.39722171,4.4812096 7.73822171,4.5532096 7.12522171,4.6972096 C6.65622171,4.3532096 6.25222171,4.1112096 5.91122171,3.9702096 C5.54280171,3.8246996 5.14928171,3.7533296 4.75322171,3.7602096 C4.54722171,4.1532096 4.44322171,4.5782096 4.44322171,5.0342096 C4.44322171,5.3592096 4.49722171,5.6882096 4.60322171,6.0192096 C4.03422171,6.6312096 3.75022171,7.4062096 3.75022171,8.3442096 C3.75022171,9.5382096 4.05322171,10.4062096 4.66022171,10.9502096 C5.26622171,11.4942096 6.23722171,11.8282096 7.57522171,11.9532096 C7.21922171,12.1912096 6.97222171,12.5382096 6.83522171,12.9932096 C6.52822171,13.1002096 6.20922171,13.1532096 5.87822171,13.1532096 C5.62822171,13.1532096 5.41222171,13.0972096 5.23122171,12.9842096 C5.12064171,12.9245096 5.01953171,12.8486096 4.93122171,12.7592096 C4.88122171,12.7092096 4.84122171,12.6702096 4.80922171,12.6422096 C4.76403171,12.5979096 4.72318171,12.5493096 4.68722171,12.4972096 C4.65564171,12.4527096 4.62296171,12.4091096 4.58922171,12.3662096 C4.55079171,12.3170096 4.51345171,12.2670096 4.47722171,12.2162096 C4.44545171,12.1713096 4.41244171,12.1273096 4.37822171,12.0842096 C4.08422171,11.6972096 3.73422171,11.5042096 3.32822171,11.5042096 C3.10922171,11.5042096 3.00022171,11.5502096 3.00022171,11.6442096 C3.00022171,11.6812096 3.05322171,11.7442096 3.16022171,11.8312096 C3.36022171,12.0062096 3.46622171,12.1002096 3.47822171,12.1132096 C3.62822171,12.2312096 3.71222171,12.3062096 3.73122171,12.3382096 C3.91322171,12.5632096 4.05022171,12.8092096 4.14422171,13.0782096 C4.49422171,13.8592096 5.09422171,14.2502096 5.94422171,14.2502096 C6.08122171,14.2502096 6.35022171,14.2192096 6.75022171,14.1562096 L6.75022171,16.1442096 C5.73873171,15.8332096 4.80643171,15.3072096 4.01722171,14.6022096 C3.22646171,13.9009096 2.59381171,13.0395096 2.16122171,12.0752096 C1.72022171,11.1002096 1.50022171,10.0752096 1.50022171,9.0002096"></path>
          </g>
        </g>
      </g>
    </g>
  </g>
</svg>